<svg version="1.1" id="Layer_1" xmlns="http://www.w3.org/2000/svg" xmlns:xlink="http://www.w3.org/1999/xlink" x="0px" y="0px"
	 width="100%" viewBox="0 0 512 512" enable-background="new 0 0 512 512" xml:space="preserve">
<path fill="#8800FF" opacity="1.000000" stroke="none" 
	d="
M1.000002,476.000000 
	C1.000000,330.309265 1.000000,184.618515 1.287871,38.795971 
	C1.951191,38.339642 2.545470,38.083164 2.670612,37.680782 
	C8.137040,20.104181 19.513098,8.419659 37.134045,2.861639 
	C37.574596,2.722680 37.718006,1.641657 38.000000,1.000000 
	C183.690750,1.000000 329.381500,1.000000 475.204041,1.287877 
	C475.660370,1.951201 475.916840,2.545483 476.319244,2.670623 
	C493.895721,8.137185 505.580444,19.513002 511.138306,37.134075 
	C511.277283,37.574615 512.358337,37.718006 513.000000,37.999992 
	C513.000000,183.690750 513.000000,329.381500 512.712158,475.204041 
	C512.048828,475.660370 511.454498,475.916809 511.329346,476.319214 
	C505.862793,493.895660 494.486969,505.580444 476.865967,511.138336 
	C476.425415,511.277313 476.282013,512.358337 476.000000,513.000000 
	C330.309265,513.000000 184.618515,513.000000 38.795982,512.712158 
	C38.339668,512.048767 38.083187,511.454529 37.680794,511.329376 
	C20.104198,505.862976 8.419691,494.486908 2.861666,476.865967 
	C2.722707,476.425415 1.641663,476.281982 1.000002,476.000000 
M179.750183,101.246536 
	C168.133057,109.225861 158.899368,119.312065 152.737488,132.056732 
	C143.922668,150.288483 141.020767,168.781784 150.959412,187.582184 
	C158.665802,202.159912 171.458481,208.507690 186.982941,209.941132 
	C190.131561,202.727814 192.742966,195.887329 196.026688,189.386475 
	C205.146729,171.331161 219.391708,159.998367 239.984116,158.487503 
	C252.297287,157.584076 263.463562,160.233383 270.235138,172.423157 
	C279.226044,188.608093 277.120880,208.503510 264.387451,225.241348 
	C253.709167,239.277771 239.724319,248.274521 222.930756,253.221436 
	C220.794846,253.850632 218.154495,253.670868 218.235504,257.622284 
	C218.816010,285.934387 241.615753,307.411438 269.950897,306.412445 
	C295.849396,305.499329 316.694122,293.876251 333.916565,275.633484 
	C363.103241,244.717636 374.082703,207.197952 368.531616,165.670670 
	C363.196472,125.759163 339.513458,99.815063 301.195648,87.684067 
	C278.609406,80.533508 255.294800,79.994644 231.935043,82.403236 
	C213.308594,84.323784 195.835464,89.921669 179.750183,101.246536 
M185.071640,410.315430 
	C191.132935,420.159607 199.471298,427.232727 210.516998,430.848724 
	C237.600677,439.715149 267.890198,423.916046 278.221130,395.608246 
	C287.000061,371.553131 277.725189,346.475525 256.181641,336.017426 
	C236.440857,326.434418 212.196976,331.149078 195.649811,347.788971 
	C178.566650,364.967865 174.353027,388.900360 185.071640,410.315430 
z"/>
<path fill="#000000" opacity="1.000000" stroke="none" 
	d="
M37.531342,1.000000 
	C37.718006,1.641657 37.574596,2.722680 37.134045,2.861639 
	C19.513098,8.419659 8.137040,20.104181 2.670612,37.680782 
	C2.545470,38.083164 1.951191,38.339642 1.287871,38.332085 
	C1.000000,25.740049 1.000000,13.480098 1.000000,1.000000 
	C13.020000,1.000000 25.041342,1.000000 37.531342,1.000000 
z"/>
<path fill="#000000" opacity="1.000000" stroke="none" 
	d="
M513.000000,37.531334 
	C512.358337,37.718006 511.277283,37.574615 511.138306,37.134075 
	C505.580444,19.513002 493.895721,8.137185 476.319244,2.670623 
	C475.916840,2.545483 475.660370,1.951201 475.667908,1.287877 
	C488.259949,1.000000 500.519897,1.000000 513.000000,1.000000 
	C513.000000,13.020000 513.000000,25.041342 513.000000,37.531334 
z"/>
<path fill="#000000" opacity="1.000000" stroke="none" 
	d="
M1.000002,476.468658 
	C1.641663,476.281982 2.722707,476.425415 2.861666,476.865967 
	C8.419691,494.486908 20.104198,505.862976 37.680794,511.329376 
	C38.083187,511.454529 38.339668,512.048767 38.332100,512.712158 
	C25.740049,513.000000 13.480098,513.000000 1.000000,513.000000 
	C1.000000,500.980011 1.000000,488.958649 1.000002,476.468658 
z"/>
<path fill="#000000" opacity="1.000000" stroke="none" 
	d="
M476.468689,513.000000 
	C476.282013,512.358337 476.425415,511.277313 476.865967,511.138336 
	C494.486969,505.580444 505.862793,493.895660 511.329346,476.319214 
	C511.454498,475.916809 512.048828,475.660370 512.712158,475.667908 
	C513.000000,488.259949 513.000000,500.519897 513.000000,513.000000 
	C500.980011,513.000000 488.958649,513.000000 476.468689,513.000000 
z"/>
<path fill="#FFFE56" opacity="1.000000" stroke="none" 
	d="
M180.058075,101.062965 
	C195.835464,89.921669 213.308594,84.323784 231.935043,82.403236 
	C255.294800,79.994644 278.609406,80.533508 301.195648,87.684067 
	C339.513458,99.815063 363.196472,125.759163 368.531616,165.670670 
	C374.082703,207.197952 363.103241,244.717636 333.916565,275.633484 
	C316.694122,293.876251 295.849396,305.499329 269.950897,306.412445 
	C241.615753,307.411438 218.816010,285.934387 218.235504,257.622284 
	C218.154495,253.670868 220.794846,253.850632 222.930756,253.221436 
	C239.724319,248.274521 253.709167,239.277771 264.387451,225.241348 
	C277.120880,208.503510 279.226044,188.608093 270.235138,172.423157 
	C263.463562,160.233383 252.297287,157.584076 239.984116,158.487503 
	C219.391708,159.998367 205.146729,171.331161 196.026688,189.386475 
	C192.742966,195.887329 190.131561,202.727814 186.982941,209.941132 
	C171.458481,208.507690 158.665802,202.159912 150.959412,187.582184 
	C141.020767,168.781784 143.922668,150.288483 152.737488,132.056732 
	C158.899368,119.312065 168.133057,109.225861 180.058075,101.062965 
z"/>
<path fill="#FFFE56" opacity="1.000000" stroke="none" 
	d="
M184.915924,409.977417 
	C174.353027,388.900360 178.566650,364.967865 195.649811,347.788971 
	C212.196976,331.149078 236.440857,326.434418 256.181641,336.017426 
	C277.725189,346.475525 287.000061,371.553131 278.221130,395.608246 
	C267.890198,423.916046 237.600677,439.715149 210.516998,430.848724 
	C199.471298,427.232727 191.132935,420.159607 184.915924,409.977417 
z"/>
</svg>